HIERARCHY
ROOT Hips
{
 OFFSET 0.000000 0.000000 0.000000
 CHANNELS 6 Xposition Yposition Zposition Yrotation Xrotation Zrotation
 JOINT Chest
 {
  OFFSET 0.000000 14.374500 -0.011500
  CHANNELS 3 Yrotation Xrotation Zrotation
  JOINT Chest2
  {
   OFFSET 0.000000 9.203400 0.023400
   CHANNELS 3 Yrotation Xrotation Zrotation
   JOINT Chest3
   {
    OFFSET 0.000000 9.162700 0.000000
    CHANNELS 3 Yrotation Xrotation Zrotation
    JOINT Chest4
    {
     OFFSET 0.000000 9.153300 0.000000
     CHANNELS 3 Yrotation Xrotation Zrotation
     JOINT Neck
     {
      OFFSET 0.000000 13.353600 0.000000
      CHANNELS 3 Yrotation Xrotation Zrotation
      JOINT Head
      {
       OFFSET 0.000000 8.573800 0.049400
       CHANNELS 3 Yrotation Xrotation Zrotation
       End Site
       {
        OFFSET 0.000000 16.219200 0.026100
       }
      }
     }
     JOINT RightCollar
     {
      OFFSET -2.497100 8.876100 0.000000
      CHANNELS 3 Yrotation Xrotation Zrotation
      JOINT RightShoulder
      {
       OFFSET -12.289200 0.000000 0.000000
       CHANNELS 3 Yrotation Xrotation Zrotation
       JOINT RightElbow
       {
        OFFSET 0.000000 -28.194900 0.000000
        CHANNELS 3 Yrotation Xrotation Zrotation
        JOINT RightWrist
        {
         OFFSET 0.000000 -23.009700 0.007900
         CHANNELS 3 Yrotation Xrotation Zrotation
         End Site
         {
          OFFSET 0.000000 -17.151500 0.000000
         }
        }
       }
      }
     }
     JOINT LeftCollar
     {
      OFFSET 2.497100 8.876100 0.000000
      CHANNELS 3 Yrotation Xrotation Zrotation
      JOINT LeftShoulder
      {
       OFFSET 12.289200 0.000000 0.000000
       CHANNELS 3 Yrotation Xrotation Zrotation
       JOINT LeftElbow
       {
        OFFSET 0.000000 -28.194900 0.000000
        CHANNELS 3 Yrotation Xrotation Zrotation
        JOINT LeftWrist
        {
         OFFSET 0.000000 -23.009700 0.007900
         CHANNELS 3 Yrotation Xrotation Zrotation
         End Site
         {
          OFFSET 0.000000 -17.151500 0.000000
         }
        }
       }
      }
     }
    }
   }
  }
 }
 JOINT RightHip
 {
  OFFSET -11.777600 0.056700 0.005700
  CHANNELS 3 Yrotation Xrotation Zrotation
  JOINT RightKnee
  {
   OFFSET 0.000000 -39.966000 -0.004200
   CHANNELS 3 Yrotation Xrotation Zrotation
   JOINT RightAnkle
   {
    OFFSET 0.000000 -41.981900 0.027400
    CHANNELS 3 Yrotation Xrotation Zrotation
    JOINT RightToe
    {
     OFFSET 0.000000 -9.910600 16.950100
     CHANNELS 3 Yrotation Xrotation Zrotation
     End Site
     {
      OFFSET 0.000000 -1.461000 6.191600
     }
    }
   }
  }
 }
 JOINT LeftHip
 {
  OFFSET 11.777600 0.056700 0.005700
  CHANNELS 3 Yrotation Xrotation Zrotation
  JOINT LeftKnee
  {
   OFFSET 0.000000 -39.966000 -0.004200
   CHANNELS 3 Yrotation Xrotation Zrotation
   JOINT LeftAnkle
   {
    OFFSET 0.000000 -41.981900 0.027400
    CHANNELS 3 Yrotation Xrotation Zrotation
    JOINT LeftToe
    {
     OFFSET 0.000000 -9.910600 16.950100
     CHANNELS 3 Yrotation Xrotation Zrotation
     End Site
     {
      OFFSET 0.000000 -1.461000 6.191600
     }
    }
   }
  }
 }
}
MOTION
Frames: 8
Frame Time: 0.008333
5.144465 130.433101 25.592982 166.903074 -49.396398 6.485502 4.769669 27.748566 7.315911 0.591522 5.159278 1.137061 0.977839 8.096582 1.814867 3.515622 22.401470 5.539121 3.700746 22.558986 -3.488196 4.876293 -1.423098 -4.636123 5.353491 -7.671279 -2.879988 27.958570 -17.867512 -4.217872 -157.293084 -44.293880 179.469247 25.626044 4.806421 -13.582960 -12.424337 -8.503793 5.769952 -17.235630 -19.983732 3.899973 156.370491 -47.102470 178.758877 -28.202680 -25.775849 49.665587 10.068488 -28.711057 -2.176302 -88.028780 86.127198 -91.982612 1.555435 -24.997570 8.674256 -0.001716 -0.007907 -0.001003 2.360894 -21.429238 -6.859629 149.002986 69.967345 158.673782 1.194743 6.058101 -7.091935 -0.062676 -0.004610 -0.036646
5.153001 130.432131 25.593422 166.841659 -49.380551 6.574005 4.771360 27.751779 7.316198 0.588340 5.160025 1.137180 0.972828 8.097752 1.814843 3.482750 22.408666 5.536945 3.761263 22.496335 -3.460662 4.868464 -1.423915 -4.694837 5.400854 -7.689070 -2.886220 27.973538 -17.854668 -4.219965 -157.295893 -44.281751 179.458082 25.637331 4.854306 -13.572117 -12.379535 -8.523869 5.730299 -17.181180 -19.935831 3.937021 156.311095 -47.124200 178.796362 -28.110333 -25.737567 49.517323 10.127390 -28.718800 -2.223523 -88.133369 86.139240 -92.092482 1.541272 -25.010167 8.674328 0.000013 0.000645 0.000008 2.351730 -21.444374 -6.782233 149.257865 70.024138 158.868279 1.113799 6.105525 -7.141572 -0.013348 -0.001259 -0.007804
5.165440 130.431553 25.593814 166.823872 -49.372711 6.614302 4.761834 27.755238 7.336575 0.586798 5.160224 1.137224 0.970411 8.098055 1.814746 3.479494 22.415735 5.600638 3.716675 22.479372 -3.560516 4.907803 -1.469628 -4.690397 5.409357 -7.698052 -2.972898 27.993143 -17.873029 -4.123154 -157.356563 -44.306540 179.528446 25.650088 4.896962 -13.564270 -12.314489 -8.547773 5.709433 -17.193685 -19.963075 3.878100 156.251754 -47.135528 178.832141 -28.029530 -25.656113 49.326848 10.129923 -28.722535 -2.245570 -88.115631 86.144734 -92.093597 1.549330 -25.012273 8.669539 -0.003097 -0.001475 -0.001811 2.326668 -21.454865 -6.720615 149.355711 70.068717 158.929917 1.036288 6.168688 -7.160339 -0.008850 -0.004389 -0.005175
5.175547 130.430807 25.594201 166.800068 -49.364014 6.668142 4.761380 27.755565 7.347534 0.586822 5.159695 1.137162 0.970399 8.097352 1.814642 3.459292 22.416815 5.575612 3.768721 22.449881 -3.524525 4.910629 -1.487993 -4.696174 5.413472 -7.707485 -2.967316 27.985241 -17.881224 -4.046408 -157.364004 -44.314059 179.565629 25.663332 4.933498 -13.555244 -12.288995 -8.552855 5.727007 -17.199260 -19.967281 3.878269 156.191094 -47.125132 178.883450 -27.931704 -25.571948 49.095491 10.141799 -28.729261 -2.275427 -88.166915 86.145911 -92.163914 1.543806 -25.011406 8.668222 -0.006942 -0.004688 -0.004059 2.317277 -21.463180 -6.690552 149.258750 70.098581 158.811284 0.929614 6.246306 -7.189597 -0.012445 -0.011461 -0.007276
5.175821 130.428551 25.595245 166.746278 -49.342403 6.782001 4.769781 27.745684 7.316264 0.587958 5.158724 1.137010 0.972155 8.095945 1.814538 3.436695 22.418234 5.555388 3.831321 22.423866 -3.489842 4.912417 -1.501833 -4.693374 5.443789 -7.744466 -2.880908 27.954765 -17.822961 -4.052137 -157.334549 -44.316517 179.574313 25.671489 4.967690 -13.536756 -12.271344 -8.556668 5.747418 -17.208685 -19.974968 3.882941 156.131055 -47.117556 178.939331 -27.829850 -25.494997 48.838827 10.198905 -28.743194 -2.354093 -88.274621 86.154741 -92.290290 1.536365 -25.017556 8.666308 -0.001074 -0.001351 -0.000628 2.343946 -21.474458 -6.707234 149.302131 70.135549 158.829104 0.865310 6.289811 -7.233711 -0.005572 -0.008061 -0.003258
5.183661 130.427418 25.596068 166.714969 -49.332786 6.848231 4.775322 27.742082 7.294332 0.599634 5.156615 1.160569 0.959276 8.096965 1.791632 3.460938 22.415239 5.578360 3.857994 22.405622 -3.478197 4.930142 -1.520607 -4.682408 5.420601 -7.757382 -2.857386 27.936446 -17.816688 -4.027788 -157.287486 -44.321361 179.567432 25.672231 5.004767 -13.501029 -12.289036 -8.560869 5.750367 -17.217681 -19.980917 3.902674 156.069356 -47.144587 178.953091 -27.761452 -25.424973 48.629992 10.224795 -28.749690 -2.391981 -88.319730 86.155408 -92.353323 1.529827 -25.015349 8.669312 -0.003018 -0.003393 -0.001765 2.343463 -21.475139 -6.692526 149.358561 70.171612 158.864065 0.812945 6.328427 -7.283305 -0.002852 -0.005843 -0.001667
5.193764 130.427389 25.596315 166.694117 -49.331910 6.896451 4.782328 27.743947 7.287883 0.611829 5.152214 1.181755 0.945644 8.100447 1.771095 3.491445 22.410761 5.601964 3.837819 22.398572 -3.485447 4.986927 -1.555398 -4.673370 5.384471 -7.767608 -2.830107 27.937231 -17.812659 -4.024109 -157.257277 -44.335875 179.559512 25.652082 5.036717 -13.459433 -12.330757 -8.563722 5.734682 -17.221484 -19.982020 3.919617 156.044104 -47.139200 178.978908 -27.678133 -25.334569 48.365650 10.239062 -28.746529 -2.414057 -88.338438 86.160890 -92.388672 1.525147 -25.012788 8.670683 -0.003196 -0.005525 -0.001868 2.330989 -21.466296 -6.664326 149.456514 70.209778 158.943067 0.741574 6.361926 -7.368271 -0.015336 0.001749 -0.008967
5.204524 130.426497 25.597549 166.673311 -49.327980 6.938890 4.795607 27.739759 7.307366 0.616497 5.149451 1.172637 0.950400 8.099642 1.782018 3.553679 22.390441 5.640342 3.826392 22.381605 -3.485459 4.983652 -1.568259 -4.667509 5.296958 -7.758496 -2.812710 27.961447 -17.809283 -4.037169 -157.275790 -44.372055 179.573814 25.632984 5.048875 -13.440525 -12.404172 -8.549180 5.732458 -17.234787 -19.992799 3.949485 155.998727 -47.142550 179.017375 -27.643769 -25.255540 48.199943 10.247995 -28.748894 -2.427190 -88.373830 86.160623 -92.441117 1.518293 -25.008667 8.666451 -0.004998 -0.008099 -0.002922 2.317201 -21.458425 -6.637422 149.533821 70.244940 158.998152 0.692173 6.379039 -7.409197 -0.018896 0.002365 -0.011048
